<svg preserveAspectRatio="none" width="100%" height="100%" overflow="visible" style="display: block;" viewBox="0 0 24 22" fill="none" xmlns="http://www.w3.org/2000/svg">
<g id="Frame">
<path id="Vector" d="M12 20.1667C6.93739 20.1667 2.83333 16.0626 2.83333 11C2.83333 5.93739 6.93739 1.83333 12 1.83333C17.0626 1.83333 21.1667 5.93739 21.1667 11C21.1667 16.0626 17.0626 20.1667 12 20.1667ZM12 3.18083C7.68159 3.18083 4.18083 6.68159 4.18083 11C4.18083 15.3184 7.68159 18.8192 12 18.8192C16.3184 18.8192 19.8192 15.3184 19.8192 11C19.8141 6.68369 16.3163 3.18588 12 3.18083ZM12.385 11.1742C13.2375 10.505 13.6317 9.93667 13.6317 9.24917C13.6472 8.84486 13.4863 8.45375 13.1907 8.17748C12.8951 7.90123 12.494 7.76711 12.0917 7.81C11.6549 7.75994 11.2175 7.90013 10.8913 8.19484C10.565 8.48956 10.3812 8.91035 10.3867 9.35C10.384 9.6624 10.4367 9.97269 10.5425 10.2667L9.01167 10.8808C8.76459 10.4456 8.64099 9.95115 8.65417 9.45083C8.65417 7.49833 10.0017 6.25167 12.11 6.25167C14.2183 6.25167 15.4192 7.41583 15.4192 9.24917C15.4192 10.4958 14.7317 11.0825 13.7692 11.8433C13.0817 12.3658 12.8525 12.5767 12.8525 13.2458H11.3217C11.2255 12.404 11.6449 11.5868 12.385 11.1742ZM11.1475 14.1717H12.9808V16.005H11.1475V14.1717Z" fill="var(--fill-0, #E4002B)"/>
</g>
</svg>
