<svg preserveAspectRatio="none" width="100%" height="100%" overflow="visible" style="display: block;" viewBox="0 0 43.7135 19.0588" fill="none" xmlns="http://www.w3.org/2000/svg">
<g id="Group">
<path id="Vector" fill-rule="evenodd" clip-rule="evenodd" d="M20.6746 2.79V7.11318H23.3407C23.976 7.11318 24.5012 6.89929 24.9162 6.47259C25.3429 6.04694 25.5568 5.53871 25.5568 4.95106C25.5568 4.37506 25.3429 3.87318 24.9162 3.44541C24.5012 3.00812 23.976 2.78894 23.3407 2.78894L20.6746 2.79ZM20.6746 8.63471V13.6493H19.0821V1.26847H23.3068C24.3794 1.26847 25.29 1.62529 26.0407 2.34C26.8031 3.05471 27.1842 3.92506 27.1842 4.95106C27.1842 6.00035 26.8031 6.87706 26.0407 7.57906C25.3027 8.28318 24.39 8.63365 23.3058 8.63365L20.6746 8.63471ZM28.7936 11.0562C28.7936 11.4713 28.9694 11.8165 29.322 12.0939C29.6735 12.3692 30.0865 12.5079 30.5587 12.5079C31.2289 12.5079 31.8251 12.2601 32.3502 11.7656C32.8765 11.2691 33.138 10.6867 33.138 10.0186C32.6414 9.62682 31.9489 9.43094 31.0606 9.43094C30.4147 9.43094 29.8747 9.58765 29.4427 9.89894C29.0096 10.2102 28.7936 10.5946 28.7936 11.0562ZM30.8541 4.89918C32.0315 4.89918 32.9601 5.21365 33.642 5.84153C34.3218 6.47047 34.6627 7.33235 34.6627 8.42718V13.6493H33.1391V12.474H33.0702C32.4116 13.4418 31.5349 13.9267 30.438 13.9267C29.5041 13.9267 28.7216 13.6493 28.0927 13.0966C27.4638 12.5428 27.1493 11.8514 27.1493 11.0213C27.1493 10.1446 27.4807 9.44788 28.1446 8.92906C28.8085 8.41024 29.6936 8.15082 30.8022 8.15082C31.7467 8.15082 32.5271 8.32341 33.138 8.66965V8.30541C33.138 7.75271 32.9188 7.28259 32.4805 6.89718C32.0581 6.51712 31.508 6.3103 30.9399 6.318C30.0505 6.318 29.3474 6.69176 28.8275 7.44247L27.4256 6.55941C28.1986 5.45294 29.3421 4.89918 30.8541 4.89918ZM43.4044 5.17659L38.0891 17.3848H36.4447L38.4184 13.1135L34.9221 5.17659H36.6533L39.1807 11.2638H39.2146L41.6732 5.17553L43.4044 5.17659Z" fill="var(--fill-0, #5F6368)"/>
<path id="Vector_2" fill-rule="evenodd" clip-rule="evenodd" d="M14.2391 7.55365C14.2391 7.05282 14.1967 6.56894 14.1162 6.10729H7.39906V8.84753H11.2468C11.168 9.28536 11.0012 9.70267 10.7566 10.0743C10.5121 10.4459 10.1947 10.7641 9.82376 11.0096V12.7885H12.1204C13.4651 11.5496 14.2391 9.71788 14.2391 7.55365Z" fill="var(--fill-0, #4285F4)"/>
<path id="Vector_3" fill-rule="evenodd" clip-rule="evenodd" d="M7.39906 14.5059C9.32188 14.5059 10.9398 13.8759 12.1204 12.7895L9.82377 11.0096C9.1853 11.4395 8.36259 11.6905 7.39906 11.6905C5.54188 11.6905 3.96424 10.4389 3.40094 8.75329H1.03553V10.5861C1.62893 11.765 2.53814 12.7558 3.66177 13.4481C4.7854 14.1405 6.07927 14.507 7.39906 14.5069" fill="var(--fill-0, #34A853)"/>
<path id="Vector_4" fill-rule="evenodd" clip-rule="evenodd" d="M3.40094 8.75329C3.1038 7.86984 3.1038 6.91345 3.40094 6.03V4.19718H1.03553C0.53548 5.18736 0.275414 6.2813 0.276353 7.39059C0.276353 8.53941 0.551647 9.62471 1.03553 10.5851L3.40094 8.75223V8.75329Z" fill="var(--fill-0, #FABB05)"/>
<path id="Vector_5" fill-rule="evenodd" clip-rule="evenodd" d="M7.39906 3.09282C8.44941 3.09282 9.38965 3.45282 10.1308 4.16012V4.16118L12.1638 2.13035C10.9313 0.982588 9.32188 0.277412 7.40012 0.277412C6.08044 0.277236 4.78665 0.643638 3.66303 1.33576C2.53941 2.02788 1.63013 3.01851 1.03659 4.19718L3.402 6.03C3.96529 4.34435 5.54188 3.09282 7.39906 3.09282Z" fill="var(--fill-0, #E94235)"/>
<g id="Vector_6">
</g>
</g>
</svg>
