<svg preserveAspectRatio="none" width="100%" height="100%" overflow="visible" style="display: block;" viewBox="0 0 24 24" fill="none" xmlns="http://www.w3.org/2000/svg">
<g id="help">
<path id="Vector" fill-rule="evenodd" clip-rule="evenodd" d="M12 2C17.523 2 22 6.477 22 12C22 17.523 17.523 22 12 22C6.477 22 2 17.523 2 12C2 6.477 6.477 2 12 2ZM12 3.47C10.3129 3.47 8.66374 3.97028 7.26099 4.90756C5.85823 5.84485 4.76492 7.17706 4.11931 8.73571C3.47369 10.2944 3.30477 12.0095 3.6339 13.6641C3.96303 15.3188 4.77544 16.8387 5.96838 18.0316C7.16132 19.2246 8.68122 20.037 10.3359 20.3661C11.9905 20.6952 13.7056 20.5263 15.2643 19.8807C16.8229 19.2351 18.1551 18.1418 19.0924 16.739C20.0297 15.3363 20.53 13.6871 20.53 12C20.5274 9.73852 19.6278 7.57041 18.0287 5.9713C16.4296 4.37219 14.2615 3.47265 12 3.47ZM13.07 15.46V17.46H11.07V15.46H13.07ZM12.12 6.82C14.42 6.82 15.73 8.09 15.73 10.09C15.73 11.45 14.98 12.09 13.93 12.92C13.18 13.49 12.93 13.72 12.93 14.45H11.26C11.2087 14.0009 11.2915 13.5466 11.4979 13.1444C11.7043 12.7422 12.0252 12.4101 12.42 12.19C13.35 11.46 13.78 10.84 13.78 10.09C13.7884 9.87202 13.7498 9.65479 13.6668 9.45306C13.5838 9.25133 13.4583 9.06983 13.299 8.92089C13.1396 8.77195 12.95 8.65906 12.7431 8.58988C12.5363 8.52071 12.3169 8.49688 12.1 8.52C11.8644 8.49301 11.6258 8.51648 11.4 8.58887C11.1742 8.66126 10.9665 8.7809 10.7905 8.93983C10.6145 9.09876 10.4744 9.29334 10.3795 9.51062C10.2846 9.72791 10.237 9.96291 10.24 10.2C10.237 10.54 10.295 10.88 10.41 11.2L8.74 11.87C8.47046 11.3952 8.33562 10.8558 8.35 10.31C8.35 8.18 9.82 6.82 12.12 6.82Z" fill="var(--fill-0, #E4002B)"/>
</g>
</svg>
