<svg preserveAspectRatio="none" width="100%" height="100%" overflow="visible" style="display: block;" viewBox="0 0 24 24" fill="none" xmlns="http://www.w3.org/2000/svg">
<g id="search">
<path id="Vector" fill-rule="evenodd" clip-rule="evenodd" d="M21.99 21.01L16.77 15.71C18.0328 14.2137 18.7238 12.3179 18.72 10.36C18.72 8.70612 18.2294 7.08941 17.3104 5.7144C16.3913 4.33938 15.0851 3.26787 13.5569 2.63542C12.0287 2.00296 10.3473 1.83799 8.72536 2.16137C7.10341 2.48476 5.61382 3.28196 4.44505 4.45213C3.27628 5.6223 2.48086 7.11284 2.15942 8.73518C1.83798 10.3575 2.00496 12.0388 2.63924 13.5662C3.27352 15.0936 4.3466 16.3985 5.72271 17.316C7.09882 18.2334 8.71612 18.722 10.37 18.72C12.3247 18.7223 14.2168 18.0314 15.71 16.77L20.92 22.01L21.99 21.01ZM3.51 10.36C3.51 9.45913 3.68744 8.56709 4.03219 7.73479C4.37693 6.9025 4.88224 6.14626 5.51925 5.50925C6.15626 4.87224 6.9125 4.36693 7.74479 4.02219C8.57709 3.67744 9.46913 3.5 10.37 3.5C11.2709 3.5 12.1629 3.67744 12.9952 4.02219C13.8275 4.36693 14.5837 4.87224 15.2208 5.50925C15.8578 6.14626 16.3631 6.9025 16.7078 7.73479C17.0526 8.56709 17.23 9.45913 17.23 10.36C17.23 12.1794 16.5073 13.9243 15.2208 15.2108C13.9343 16.4973 12.1894 17.22 10.37 17.22C8.55061 17.22 6.80575 16.4973 5.51925 15.2108C4.23275 13.9243 3.51 12.1794 3.51 10.36Z" fill="var(--fill-0, #E4002B)"/>
</g>
</svg>
