<svg preserveAspectRatio="none" width="100%" height="100%" overflow="visible" style="display: block;" viewBox="0 0 24 24" fill="none" xmlns="http://www.w3.org/2000/svg">
<g id="account">
<path id="Vector" d="M12 13.05C14.3525 13.05 16.6086 13.9845 18.272 15.648C19.9355 17.3114 20.87 19.5675 20.87 21.92H19.37C19.37 19.9654 18.5935 18.0908 17.2114 16.7086C15.8292 15.3265 13.9546 14.55 12 14.55C10.0454 14.55 8.17077 15.3265 6.78862 16.7086C5.40648 18.0908 4.63 19.9654 4.63 21.92H3.13C3.13 19.5675 4.06452 17.3114 5.72796 15.648C7.39141 13.9845 9.64753 13.05 12 13.05ZM12 2.07C13.3261 2.07 14.5979 2.59678 15.5355 3.53447C16.4732 4.47215 17 5.74392 17 7.07C17 8.39608 16.4732 9.66785 15.5355 10.6055C14.5979 11.5432 13.3261 12.07 12 12.07C10.6739 12.07 9.40215 11.5432 8.46447 10.6055C7.52678 9.66785 7 8.39608 7 7.07C7 5.74392 7.52678 4.47215 8.46447 3.53447C9.40215 2.59678 10.6739 2.07 12 2.07ZM12 3.59V3.61C11.3113 3.61199 10.6387 3.81828 10.0673 4.20276C9.4959 4.58724 9.05144 5.13262 8.79018 5.76984C8.52892 6.40706 8.46261 7.10748 8.59964 7.78241C8.73667 8.45734 9.07089 9.07644 9.55997 9.56132C10.0491 10.0462 10.671 10.3751 11.3471 10.5063C12.0232 10.6375 12.723 10.5651 13.358 10.2983C13.9929 10.0316 14.5344 9.58244 14.9139 9.00776C15.2935 8.43307 15.494 7.75869 15.49 7.07C15.49 6.61216 15.3997 6.15881 15.2241 5.73595C15.0486 5.31308 14.7914 4.92901 14.4672 4.60573C14.143 4.28245 13.7582 4.02632 13.3348 3.85202C12.9114 3.67773 12.4578 3.58868 12 3.59Z" fill="var(--fill-0, #E4002B)"/>
</g>
</svg>
