<svg preserveAspectRatio="none" width="100%" height="100%" overflow="visible" style="display: block;" viewBox="0 0 358.983 197.441" fill="none" xmlns="http://www.w3.org/2000/svg">
<path id="Sottrazione 2" d="M358.983 197.441H0V0H358.983V197.441ZM328.532 161.422C326.886 161.407 325.292 162.005 324.062 163.1C323.463 163.634 322.983 164.29 322.656 165.023C322.328 165.756 322.16 166.55 322.162 167.353C322.15 168.991 322.747 170.574 323.835 171.798C324.361 172.396 325.009 172.876 325.735 173.204C326.461 173.533 327.249 173.703 328.046 173.704C329.696 173.776 331.321 173.277 332.647 172.292L333.635 173.566H335.043V167.277H328.861V169.571H331.126C331.216 169.571 331.243 169.596 331.243 169.675C331.243 170.441 330.096 171.283 329.049 171.283C328.405 171.308 327.772 171.113 327.254 170.73C326.993 170.512 326.786 170.235 326.651 169.922C326.516 169.609 326.455 169.269 326.475 168.929V166.336C326.43 165.999 326.461 165.657 326.565 165.333C326.669 165.01 326.844 164.714 327.077 164.466C327.309 164.219 327.595 164.027 327.911 163.904C328.228 163.781 328.568 163.729 328.906 163.754C330.113 163.754 331.399 164.559 331.399 165.757L334.775 165.398C334.581 164.479 334.126 163.637 333.464 162.972C332.802 162.307 331.962 161.848 331.044 161.65C330.216 161.497 329.375 161.42 328.532 161.422ZM139.269 161.422C137.624 161.424 136.038 162.034 134.816 163.136C134.215 163.675 133.734 164.334 133.404 165.071C133.074 165.808 132.903 166.606 132.902 167.414C132.899 168.228 133.058 169.035 133.371 169.787C133.683 170.539 134.141 171.222 134.72 171.795C135.933 173.01 137.577 173.697 139.294 173.704C140.142 173.712 140.988 173.621 141.814 173.433C142.758 173.188 143.617 172.692 144.3 171.996C144.983 171.3 145.464 170.432 145.691 169.484L142.396 169.05C142.139 171.002 141.262 171.402 140.026 171.402C139.902 171.402 139.772 171.402 139.627 171.389C138.11 171.274 137.24 169.95 137.24 167.756V167.472C137.184 166.519 137.429 165.573 137.938 164.766C138.135 164.487 138.393 164.258 138.694 164.097C138.994 163.935 139.328 163.846 139.669 163.836C139.724 163.836 139.781 163.831 139.836 163.831C140.117 163.803 140.401 163.834 140.671 163.92C140.94 164.006 141.189 164.146 141.402 164.332C141.615 164.518 141.787 164.745 141.909 165C142.031 165.256 142.1 165.533 142.11 165.815L145.472 165.46C145.298 164.548 144.858 163.708 144.207 163.044C143.557 162.381 142.725 161.925 141.816 161.733C140.983 161.521 140.125 161.416 139.265 161.422H139.269ZM121.675 161.422C120.031 161.424 118.446 162.034 117.226 163.136C116.625 163.675 116.143 164.334 115.814 165.071C115.484 165.808 115.313 166.606 115.311 167.414C115.308 168.228 115.467 169.034 115.778 169.786C116.089 170.538 116.547 171.22 117.124 171.793C118.339 173.01 119.985 173.697 121.704 173.704C122.551 173.712 123.396 173.621 124.222 173.433C125.166 173.189 126.026 172.693 126.709 171.997C127.392 171.301 127.872 170.432 128.098 169.484L124.807 169.05C124.55 171.002 123.672 171.402 122.432 171.402C122.309 171.402 122.178 171.402 122.033 171.389C120.517 171.274 119.647 169.95 119.647 167.756V167.472C119.591 166.519 119.835 165.573 120.345 164.766C120.542 164.487 120.801 164.258 121.102 164.097C121.403 163.935 121.738 163.846 122.079 163.836C122.134 163.836 122.191 163.831 122.246 163.831C122.527 163.804 122.811 163.834 123.081 163.92C123.35 164.006 123.599 164.146 123.813 164.332C124.026 164.518 124.199 164.745 124.321 165C124.444 165.255 124.513 165.533 124.524 165.815L127.883 165.46C127.708 164.548 127.267 163.708 126.616 163.045C125.966 162.382 125.134 161.926 124.225 161.733C123.391 161.521 122.533 161.416 121.672 161.422H121.675ZM184.623 169.623L182.714 171.082C184.186 173.448 187.572 173.703 188.958 173.703C189.137 173.703 189.313 173.703 189.479 173.691C191.113 173.616 193.281 173.182 194.328 171.539C194.612 171.095 194.785 170.588 194.832 170.062C194.879 169.537 194.797 169.007 194.595 168.52C194.232 167.761 193.673 167.113 192.975 166.644C192.277 166.175 191.466 165.902 190.627 165.852C189.876 165.737 189.517 165.693 189.17 165.653C188.871 165.617 188.591 165.582 188.08 165.505C187.79 165.468 187.382 165.277 187.382 164.971C187.382 164.686 187.55 164.553 187.858 164.407C188.344 164.235 188.856 164.151 189.372 164.158C190.416 164.141 191.439 164.452 192.298 165.046L194.269 163.556C192.749 162.157 190.75 161.397 188.685 161.432C188.248 161.433 187.813 161.461 187.38 161.518C186.899 161.587 184.454 162.016 183.653 163.556C183.411 164.024 183.28 164.541 183.27 165.068C183.26 165.595 183.371 166.117 183.595 166.594C183.954 167.224 184.445 167.769 185.034 168.191C185.623 168.613 186.297 168.902 187.009 169.039C187.849 169.336 188.715 169.553 189.595 169.688C189.806 169.721 190.003 169.753 190.229 169.801C190.319 169.813 190.403 169.848 190.474 169.903C190.546 169.958 190.602 170.03 190.637 170.113C190.677 170.207 190.692 170.309 190.683 170.41C190.673 170.511 190.639 170.608 190.582 170.693C190.416 170.9 190.186 171.047 189.927 171.11C189.476 171.229 189.01 171.287 188.543 171.282C187.486 171.307 186.448 170.997 185.578 170.396C185.39 170.27 185.126 170.046 184.892 169.849C184.793 169.766 184.703 169.688 184.624 169.625L184.623 169.623ZM168.126 169.623L166.216 171.082C167.69 173.448 171.073 173.703 172.46 173.703C172.639 173.703 172.815 173.703 172.981 173.691C174.614 173.616 176.781 173.182 177.829 171.539C178.113 171.094 178.286 170.588 178.332 170.062C178.378 169.536 178.297 169.007 178.096 168.52C177.734 167.761 177.175 167.114 176.478 166.645C175.781 166.176 174.971 165.902 174.132 165.852C173.379 165.738 173.021 165.694 172.675 165.653H172.669C172.37 165.617 172.091 165.582 171.581 165.505C171.29 165.467 170.883 165.277 170.883 164.971C170.883 164.665 171.098 164.531 171.36 164.407C171.845 164.235 172.358 164.151 172.873 164.158C173.919 164.142 174.943 164.452 175.803 165.046L177.769 163.556C176.25 162.157 174.25 161.397 172.185 161.432C171.75 161.433 171.314 161.461 170.882 161.518C170.401 161.587 167.963 162.016 167.156 163.556C166.916 164.025 166.786 164.542 166.775 165.068C166.765 165.595 166.875 166.117 167.097 166.594C167.455 167.224 167.946 167.769 168.535 168.191C169.125 168.613 169.798 168.902 170.51 169.039C171.35 169.336 172.215 169.553 173.096 169.688C173.308 169.722 173.507 169.754 173.732 169.802C173.82 169.814 173.904 169.849 173.975 169.902C174.046 169.956 174.102 170.027 174.138 170.108C174.178 170.202 174.195 170.305 174.186 170.407C174.178 170.509 174.145 170.607 174.091 170.694C173.921 170.901 173.689 171.047 173.429 171.111C172.978 171.23 172.513 171.288 172.047 171.283C170.989 171.308 169.95 170.998 169.079 170.397C168.902 170.278 168.647 170.062 168.443 169.889C168.326 169.789 168.219 169.698 168.127 169.626L168.126 169.623ZM83.2213 169.623L81.3117 171.082C82.7895 173.448 86.1719 173.703 87.557 173.703C87.7374 173.703 87.9131 173.703 88.0796 173.691C89.714 173.615 91.8808 173.182 92.9238 171.539C93.2096 171.095 93.3832 170.588 93.4297 170.062C93.4763 169.536 93.3945 169.007 93.1911 168.52C92.8292 167.761 92.2705 167.114 91.5734 166.645C90.8763 166.176 90.0661 165.902 89.2273 165.852C88.4764 165.738 88.1184 165.694 87.7734 165.653C87.4742 165.617 87.1951 165.582 86.6815 165.504C86.3893 165.466 85.9765 165.275 85.9765 164.97C85.9765 164.665 86.1938 164.531 86.4551 164.406C86.9405 164.234 87.4529 164.149 87.9679 164.157C89.0115 164.141 90.034 164.451 90.8925 165.045L92.862 163.555C91.3423 162.156 89.3428 161.396 87.2777 161.431C86.8416 161.431 86.406 161.46 85.9736 161.517C85.4919 161.586 83.0508 162.015 82.247 163.555C82.0053 164.023 81.8745 164.541 81.8648 165.067C81.8551 165.594 81.9669 166.116 82.1913 166.593C82.5493 167.224 83.0398 167.769 83.6294 168.191C84.2189 168.613 84.8932 168.902 85.6055 169.038C86.445 169.336 87.3107 169.553 88.1911 169.687C88.4016 169.72 88.6 169.752 88.8263 169.8C88.9149 169.812 88.9988 169.847 89.0698 169.902C89.1407 169.956 89.1963 170.028 89.2312 170.11C89.2703 170.204 89.2858 170.306 89.2765 170.408C89.2671 170.509 89.2331 170.606 89.1774 170.692C89.0102 170.898 88.7807 171.044 88.5232 171.109C88.0716 171.228 87.6061 171.286 87.1392 171.281C86.0822 171.307 85.0444 170.997 84.1747 170.395C83.9862 170.271 83.7189 170.044 83.5045 169.862C83.4117 169.783 83.3051 169.693 83.2194 169.624L83.2213 169.623ZM215.82 161.585V169.711C215.82 172.473 217.489 173.7 221.231 173.7H221.998C223.477 173.829 224.958 173.468 226.211 172.673C226.631 172.309 226.959 171.85 227.168 171.335C227.377 170.82 227.461 170.262 227.413 169.708V161.582H224.346V169.226C224.346 170.262 223.548 170.81 222.046 170.81C220.597 170.81 219.8 170.259 219.8 169.259V161.58L215.82 161.585ZM98.5997 161.585V169.711C98.5997 172.473 100.269 173.7 104.011 173.7H104.781C106.26 173.829 107.74 173.468 108.993 172.673C109.414 172.309 109.742 171.85 109.951 171.335C110.16 170.82 110.244 170.262 110.196 169.708V161.582H107.122V169.226C107.122 170.262 106.33 170.81 104.828 170.81C103.376 170.81 102.577 170.259 102.577 169.259V161.58L98.5997 161.585ZM45.9409 161.422C44.9645 161.373 43.9882 161.518 43.0677 161.847C42.1473 162.176 41.3008 162.684 40.577 163.341C40.0575 163.883 39.6545 164.525 39.3928 165.228C39.1311 165.931 39.0163 166.681 39.0554 167.43C39.038 168.22 39.18 169.006 39.4729 169.74C39.7659 170.474 40.2039 171.142 40.7605 171.703C42.1583 173.026 44.0215 173.744 45.9458 173.702C46.8652 173.727 47.7804 173.57 48.6386 173.239C49.4968 172.909 50.2811 172.411 50.9458 171.775C51.5055 171.208 51.945 170.534 52.2383 169.793C52.5316 169.053 52.6726 168.26 52.6529 167.464C52.6686 166.631 52.5016 165.806 52.1635 165.045C51.8255 164.285 51.3248 163.607 50.6965 163.061C49.3593 161.961 47.6703 161.379 45.939 161.422H45.9409ZM58.0964 161.585V173.543H62.0632V169.05H64.1175L66.0558 173.538H70.3618L68.0512 168.861C68.7989 168.58 69.4384 168.07 69.8778 167.403C70.3171 166.736 70.5338 165.947 70.4964 165.149C70.5103 164.652 70.4177 164.157 70.2247 163.699C70.0317 163.24 69.7428 162.828 69.3775 162.49C69.0122 162.152 68.579 161.896 68.1067 161.739C67.6344 161.583 67.134 161.529 66.6392 161.581L58.0964 161.585ZM305.103 161.585V173.543H308.157V166.682L313.878 173.54H317.169V161.583H314.088V168.053L308.689 161.583L305.103 161.585ZM150.685 161.585V173.54H161.774V171.047H154.65V168.976H158.927V166.459H154.65V164.205H161.281V161.586L150.685 161.585ZM199.912 161.585V173.54H203.864V168.978H208.159V166.458H203.864V164.203H210.495V161.585H199.912ZM23.9261 161.585V173.54H27.8752V168.978H32.1628V166.458H27.8752V164.203H34.5092V161.585H23.9261ZM295.846 161.585V173.54H299.814V161.585H295.846ZM268.867 161.585V173.54H272.835V161.585H268.867ZM277.478 161.571L282.128 173.538H286.222L290.958 161.584H287.495L284.468 169.273L281.489 161.584L277.479 161.57L277.478 161.571ZM254.029 161.585V173.539H263.748V170.916H258.01V161.583L254.029 161.585ZM232.734 161.585V173.539H242.452V170.916H236.715V161.583L232.734 161.585ZM173.343 110.702C173.315 114.756 173.665 118.804 174.388 122.792C175.078 126.765 176.417 130.597 178.352 134.134C182.775 141.894 190.059 145.83 199.999 145.83C208.849 145.83 216.212 142.676 221.291 136.709C223.74 133.784 225.59 130.407 226.735 126.769C227.985 122.815 228.606 118.689 228.573 114.542C228.644 106.406 226.06 98.4689 221.213 91.9346C216.878 85.9316 211.34 81.2578 205.991 76.7376C201.988 73.3572 198.213 70.1662 195.44 66.7818C192.349 62.9975 190.903 59.4536 190.903 55.6254C190.903 49.2236 193.9 45.2459 198.725 45.2459C207.026 45.2459 207.026 55.9375 207.026 62.3254H225.544C225.484 57.6011 224.916 52.897 223.849 48.2943C222.967 44.395 221.39 40.6863 219.194 37.3453C217.16 34.32 214.382 31.8688 211.127 30.2274C207.403 28.4661 203.319 27.5968 199.2 27.6886C190.896 27.6886 183.982 30.8276 179.204 36.7628C176.895 39.6911 175.162 43.0319 174.1 46.607C172.928 50.5142 172.347 54.5748 172.378 58.6538C172.265 66.7613 174.823 74.6808 179.657 81.1901C183.945 87.0655 189.447 91.5556 194.764 95.8974C198.814 99.204 202.642 102.327 205.448 105.73C208.592 109.536 210.057 113.195 210.057 117.247C210.084 119.808 209.37 122.322 208.002 124.487C207.275 125.6 206.295 126.525 205.142 127.187C203.812 127.914 202.317 128.282 200.801 128.256C198.906 128.326 197.055 127.665 195.632 126.411C194.361 125.16 193.444 123.594 192.977 121.873C191.86 118.283 191.86 113.895 191.86 110.697L173.343 110.702ZM89.7597 29.9153V143.593H110.514V29.9153H89.7597ZM292.927 29.9153V143.593H335.051V126.033H313.684V29.9153H292.927ZM235.621 29.9153V143.593H283.67V126.033H256.374V95.0568H275.691V76.5363H256.374V47.4786H282.555V29.9153H235.621ZM121.644 29.9153V143.593H169.69V126.033H142.397V95.0568H161.714V76.5363H142.397V47.4786H168.577V29.9153H121.644ZM23.9203 29.9153V143.583H45.3116C53.1325 143.583 59.3399 142.187 64.2879 139.328C68.9399 136.594 72.6031 132.452 74.7492 127.501C76.9211 122.825 78.376 116.939 79.1956 109.506C79.905 101.942 80.2144 94.3465 80.1222 86.7503C80.247 78.9265 79.89 71.1025 79.0532 63.3226C78.1318 55.8747 76.5093 50.0124 74.0912 45.4024C68.5509 34.8324 58.3419 29.9153 41.9603 29.9153H23.9203ZM329.081 29.9243C327.895 29.9198 326.735 30.2676 325.747 30.9237C324.76 31.5797 323.99 32.5144 323.534 33.6092C323.079 34.7039 322.959 35.9093 323.19 37.0723C323.421 38.2352 323.992 39.3033 324.831 40.1411C325.67 40.9788 326.739 41.5484 327.902 41.7776C329.065 42.0067 330.27 41.885 331.365 41.428C332.459 40.9709 333.392 40.1991 334.047 39.2105C334.701 38.2219 335.047 37.0611 335.041 35.8754C335.032 34.299 334.402 32.7898 333.286 31.6758C332.171 30.5618 330.661 29.933 329.084 29.9262L329.081 29.9243ZM45.8331 171.381C45.2845 171.343 44.7686 171.106 44.3816 170.715C43.9946 170.325 43.763 169.807 43.7302 169.258C43.6093 168.177 43.6154 167.087 43.7482 166.008C43.7728 165.454 43.998 164.929 44.3816 164.529C44.7653 164.13 45.2811 163.883 45.8331 163.836C46.3843 163.889 46.8987 164.137 47.2838 164.535C47.669 164.933 47.9 165.455 47.9353 166.008C47.995 167.082 47.9701 168.159 47.8605 169.23C47.8447 169.774 47.63 170.294 47.257 170.69C46.884 171.087 46.3785 171.333 45.8363 171.383L45.8331 171.381ZM64.9063 166.532H62.0603V164.035H64.9063C65.2383 164.035 65.5567 164.167 65.7915 164.402C66.0262 164.637 66.1581 164.955 66.1581 165.287C66.1581 165.619 66.0262 165.938 65.7915 166.173C65.5567 166.407 65.2383 166.539 64.9063 166.539V166.532ZM44.6764 126.028V47.4755C48.3221 47.5204 50.6146 47.9253 52.3437 48.8288C54.2663 49.8329 55.5717 51.547 56.4502 54.2234C58.2761 59.7806 58.4076 70.1593 58.4076 86.5937C58.4076 103.124 58.2761 113.566 56.4502 119.183C55.5707 121.891 54.2663 123.628 52.3437 124.649C50.6096 125.574 48.3171 125.987 44.6794 126.031L44.6764 126.028ZM329.081 40.7296C327.969 40.7259 326.892 40.3368 326.035 39.6286C325.177 38.9204 324.592 37.9368 324.378 36.8454C324.164 35.7539 324.335 34.6222 324.861 33.6426C325.388 32.6631 326.238 31.8963 327.266 31.473C328.295 31.0496 329.439 30.9958 330.502 31.3207C331.566 31.6456 332.484 32.3292 333.1 33.2549C333.717 34.1807 333.993 35.2914 333.883 36.3981C333.772 37.5048 333.282 38.539 332.494 39.3247C332.047 39.7724 331.515 40.1272 330.93 40.3688C330.344 40.6105 329.717 40.7341 329.084 40.7327L329.081 40.7296ZM326.858 32.5528V39.2479H327.844V36.1566H329.008L330.919 39.2409H332.055L330.031 36.1586C330.991 36.1346 332.134 35.7956 332.134 34.3138C332.146 34.0305 332.084 33.749 331.955 33.4964C331.826 33.2439 331.634 33.0288 331.398 32.8719C330.893 32.6237 330.331 32.5123 329.769 32.5488L326.858 32.5528ZM329.583 35.3448C329.483 35.3448 329.376 35.3448 329.243 35.3448C329.136 35.3448 329.031 35.3448 328.93 35.3448H327.847V33.3276H329.571C330.338 33.3276 331.156 33.4034 331.156 34.3088C331.174 34.4874 331.136 34.6671 331.048 34.8236C330.961 34.9802 330.827 35.1061 330.666 35.1844C330.321 35.3142 329.952 35.3685 329.585 35.3439L329.583 35.3448Z" fill="var(--fill-0, #E4002B)"/>
</svg>
