<svg preserveAspectRatio="none" width="100%" height="100%" overflow="visible" style="display: block;" viewBox="0 0 16 16" fill="none" xmlns="http://www.w3.org/2000/svg">
<g id="pickup-store">
<path id="Vector" fill-rule="evenodd" clip-rule="evenodd" d="M14.6667 2.66667V14H2V2.69333L14.6667 2.66667ZM13.6867 5.49333H3.02V13H13.6867V5.49333ZM6.638 6.74667C7.00041 6.34217 7.49393 6.07852 8.03163 6.00216C8.56933 5.92579 9.11674 6.0416 9.57745 6.32919C10.0382 6.61678 10.3826 7.05771 10.5501 7.57432C10.7177 8.09094 10.6976 8.6501 10.4933 9.15333L10.2667 9.57333L8.35333 12.4333L6.3 9.34C6.08721 8.92433 6.0056 8.45386 6.06595 7.9908C6.12631 7.52775 6.32578 7.09391 6.638 6.74667ZM8.35333 6.98667C8.13347 6.99318 7.91864 7.05399 7.72798 7.16367C7.53732 7.27334 7.37675 7.42849 7.26059 7.61527C7.14443 7.80205 7.07628 8.01467 7.06222 8.23417C7.04816 8.45368 7.08862 8.67326 7.18 8.87333L7.28667 9.05333L8.35333 10.64L9.45333 9.06667L9.61333 8.76C9.68363 8.55891 9.70472 8.3439 9.67484 8.13298C9.64497 7.92207 9.56498 7.72138 9.4416 7.54772C9.31821 7.37407 9.15502 7.23251 8.96567 7.13489C8.77633 7.03728 8.56636 6.98645 8.35333 6.98667ZM13.6867 3.72H3.02V4.49333H13.6867V3.72Z" fill="var(--fill-0, #E4002B)"/>
</g>
</svg>
