<svg preserveAspectRatio="none" width="100%" height="100%" overflow="visible" style="display: block;" viewBox="0 0 24 24" fill="none" xmlns="http://www.w3.org/2000/svg">
<g id="plus">
<path id="Vector" fill-rule="evenodd" clip-rule="evenodd" d="M12 2C17.523 2 22 6.477 22 12C22 17.523 17.523 22 12 22C6.477 22 2 17.523 2 12C2 6.477 6.477 2 12 2ZM12 3.47C10.3129 3.47 8.66374 3.97028 7.26099 4.90756C5.85823 5.84485 4.76492 7.17706 4.11931 8.73571C3.47369 10.2944 3.30477 12.0095 3.6339 13.6641C3.96303 15.3188 4.77544 16.8387 5.96838 18.0316C7.16132 19.2246 8.68122 20.037 10.3359 20.3661C11.9905 20.6952 13.7056 20.5263 15.2643 19.8807C16.8229 19.2351 18.1551 18.1418 19.0924 16.739C20.0297 15.3363 20.53 13.6871 20.53 12C20.5274 9.73852 19.6278 7.57041 18.0287 5.9713C16.4296 4.37219 14.2615 3.47265 12 3.47ZM12.75 6.92V11.25H17.08V12.75H12.75V17.08H11.25V12.75H6.92V11.25H11.25V6.92H12.75Z" fill="var(--fill-0, #121212)"/>
</g>
</svg>
