<svg preserveAspectRatio="none" width="100%" height="100%" overflow="visible" style="display: block;" viewBox="0 0 24 24" fill="none" xmlns="http://www.w3.org/2000/svg">
<g id="wishlist">
<path id="Vector" fill-rule="evenodd" clip-rule="evenodd" d="M12 22L3.52 12.34C2.50959 11.1505 1.95486 9.64068 1.95486 8.08C1.95486 6.51932 2.50959 5.00945 3.52 3.82C4.00402 3.25507 4.6034 2.80035 5.27784 2.48642C5.95227 2.17249 6.68611 2.00663 7.43 2C8.1722 2.00805 8.9041 2.1746 9.57671 2.48848C10.2493 2.80236 10.8471 3.25634 11.33 3.82L11.48 3.98C11.655 4.166 11.82 4.363 11.97 4.57C12.15 4.34 12.31 4.16 12.47 3.98L12.62 3.82C13.1073 3.25127 13.7115 2.79429 14.3915 2.48021C15.0714 2.16613 15.811 2.00234 16.56 2C17.3065 1.9999 18.044 2.1627 18.721 2.47704C19.3981 2.79139 19.9984 3.2497 20.48 3.82C21.4923 5.00856 22.0483 6.51877 22.0483 8.08C22.0483 9.64123 21.4923 11.1514 20.48 12.34L12 22ZM7.43 3.5C6.89757 3.50752 6.37297 3.62926 5.89164 3.85699C5.41031 4.08471 4.98348 4.41312 4.64 4.82C3.86001 5.72705 3.43109 6.8837 3.43109 8.08C3.43109 9.2763 3.86001 10.4329 4.64 11.34L12 19.72L19.36 11.35C20.1427 10.4423 20.5732 9.28357 20.5732 8.085C20.5732 6.88643 20.1427 5.72774 19.36 4.82C19.0165 4.41312 18.5897 4.08471 18.1084 3.85699C17.627 3.62926 17.1024 3.50752 16.57 3.5C16.0405 3.51026 15.5191 3.63226 15.0401 3.85801C14.561 4.08376 14.135 4.40817 13.79 4.81L13.63 5C13.4802 5.1547 13.34 5.31833 13.21 5.49L12 7.08L10.79 5.47C10.65 5.29 10.52 5.14 10.38 4.99L10.22 4.81C9.87543 4.40769 9.44953 4.08294 8.97036 3.85714C8.49119 3.63134 7.96962 3.50963 7.44 3.5H7.43Z" fill="var(--fill-0, #E4002B)"/>
</g>
</svg>
